<?xml version="1.0" encoding="UTF-8" standalone="no"?>
<!DOCTYPE svg PUBLIC "-//W3C//DTD SVG 1.1//EN" "http://www.w3.org/Graphics/SVG/1.1/DTD/svg11.dtd">
<svg width="100%" height="100%" viewBox="0 0 1121 1072" version="1.1" xmlns="http://www.w3.org/2000/svg" xmlns:xlink="http://www.w3.org/1999/xlink" xml:space="preserve" xmlns:serif="http://www.serif.com/" style="fill-rule:evenodd;clip-rule:evenodd;stroke-linejoin:round;stroke-miterlimit:2;">
    <g id="Background">
        <path d="M1113.945,212.256c9.047,175.618 8.839,190.919 -2.617,181.938c-9.036,-7.084 -85.356,-89.009 -97.004,-70.605c-283.259,447.539 -436.331,325.395 -660.179,485.117c-157.591,112.446 -153.701,262.125 -188.618,262.241c-158.535,0.526 -169.702,0.758 -164.612,-11.422c31.457,-75.268 36.101,-72.519 405.814,-935.487c16.908,-39.466 58.094,-27.841 149.289,-27.679c37.069,0.066 33.128,17.241 101.43,175.32c36.835,85.251 86.423,102.11 12.039,158.145c-39.656,29.874 -79.465,61.695 -89.097,40.048c-79.102,-177.793 -77.327,-199.889 -84.102,-185.102c-7.54,16.459 -6.215,16.787 -86.689,209.041c-74.18,177.217 -79.516,197.098 -68.029,186.167c149.989,-142.739 365,-122.249 526.477,-407.946c32.437,-57.389 -15.432,-42.548 -80.625,-55.948c-30.024,-6.171 -27.79,-11.484 -26.081,-13.074c20.62,-19.183 24.849,-12.704 300,-184.224c40.445,-25.212 43.917,-19.025 44.094,-15.295c0.85,17.922 1.054,50.763 8.511,208.763Z" style="fill:rgb(52,93,93);"/>
        <path d="M966.488,983.35c35.089,82.125 31.323,87.436 24.066,87.467c-164.053,0.7 -166.19,-0.853 -169.009,-6.956c-12.64,-27.371 -156.868,-339.687 -138.624,-350.43c32.546,-19.164 33.247,-15.958 64.758,-35.009c50.022,-30.242 59.879,-64.086 76.411,-25.424c6.824,15.959 13.208,32.103 19.969,48.089c9.587,22.67 10.678,21.674 122.429,282.264Z" style="fill:rgb(53,95,94);"/>
    </g>
</svg>
